<svg xmlns="http://www.w3.org/2000/svg" xmlns:xlink="http://www.w3.org/1999/xlink" xmlns:ev="http://www.w3.org/2001/xml-events" xmlns:v="http://schemas.microsoft.com/visio/2003/SVGExtensions/" xml:space="preserve" color-interpolation-filters="sRGB" class="st7" viewBox="222.02 240.97 346.83 91.21">
	<v:documentProperties v:langID="2052" v:metric="true" v:viewMarkup="false">
		<v:userDefs>
			<v:ud v:nameU="msvSubprocessMaster" v:prompt="" v:val="VT4(Rectangle)"/>
			<v:ud v:nameU="msvNoAutoConnect" v:val="VT0(1):26"/>
		</v:userDefs>
	</v:documentProperties>

	<style type="text/css">
	<![CDATA[
		.st1 {fill:none;stroke:none;stroke-width:0.25}
		.st2 {fill:#0d385a;font-family:Arial;font-size:4.75001em;font-weight:bold}
		.st3 {fill:#d03b38;font-size:1em}
		.st4 {fill:#0d385a;stroke:none;stroke-width:0.25}
		.st5 {fill:#e7302c;stroke:none;stroke-width:0.25}
		.st6 {fill:none;stroke:#0d385a;stroke-linecap:round;stroke-linejoin:round;stroke-width:9.5}
		.st7 {fill:none;fill-rule:evenodd;font-size:12px;overflow:visible;stroke-linecap:square;stroke-miterlimit:3}
	]]>
	</style>

	<g v:mID="0" v:index="1" v:groupContext="foregroundPage">
		<v:userDefs>
			<v:ud v:nameU="msvThemeOrder" v:val="VT0(0):26"/>
		</v:userDefs>
		<title>页-1</title>
		<v:pageProperties v:drawingScale="0.0393701" v:pageScale="0.0393701" v:drawingUnits="24" v:shadowOffsetX="8.50394" v:shadowOffsetY="-8.50394"/>
		<g id="shape5-1" v:mID="5" v:groupContext="shape" transform="translate(302.173,-288.729)">
			<title>矩形.78</title>
			<desc>IneqMath</desc>
			<v:userDefs>
				<v:ud v:nameU="visVersion" v:val="VT0(15):26"/>
			</v:userDefs>
			<v:textBlock v:margins="rect(4,4,4,4)" v:tabSpace="42.5197"/>
			<v:textRect cx="141.591" cy="576.184" width="283.19" height="38.1826"/>
			<rect x="0" y="557.093" width="283.181" height="38.1826" class="st1"/>
			<text x="16.51" y="593.28" class="st2" v:langID="2052"><v:paragraph v:horizAlign="1"/><v:tabList/>Ineq<tspan class="st3">Math</tspan></text>		</g>
		<g id="group14-5" transform="translate(226.772,-269.291)" v:mID="14" v:groupContext="group">
			<title>工作表.14</title>
			<g id="shape3-6" v:mID="3" v:groupContext="shape" transform="translate(303.875,1049.7) rotate(-30.5) scale(1,-1)">
				<title>三角形</title>
				<v:userDefs>
					<v:ud v:nameU="visVersion" v:val="VT0(15):26"/>
				</v:userDefs>
				<path d="M39.87 595.28 L19.93 561.33 L0 595.28 L39.87 595.28 Z" class="st4"/>
			</g>
			<g id="shape13-8" v:mID="13" v:groupContext="shape" transform="translate(303.875,62.1353) rotate(30.5)">
				<title>三角形.13</title>
				<v:userDefs>
					<v:ud v:nameU="visVersion" v:val="VT0(15):26"/>
				</v:userDefs>
				<path d="M39.87 595.28 L19.93 561.33 L0 595.28 L39.87 595.28 Z" class="st5"/>
			</g>
			<g id="shape1-10" v:mID="1" v:groupContext="shape" transform="translate(-522.992,592.006) rotate(-90)">
				<title>六边形</title>
				<v:userDefs>
					<v:ud v:nameU="visVersion" v:val="VT0(15):26"/>
				</v:userDefs>
				<path d="M53.73 522.99 L18.55 522.99 A5.66929 5.66929 -180 0 0 13.64 525.83 L-3.95 556.3 A5.66929 5.66929 -180 0         0 -3.95 561.97 L13.64 592.44 A5.66929 5.66929 -180 0 0 18.55 595.28 L53.73 595.28 A5.66929 5.66929 -180         0 0 58.64 592.44 L76.24 561.97 A5.66929 5.66929 -180 0 0 76.24 556.3 L58.64 525.83 A5.66929 5.66929         -180 0 0 53.73 522.99 Z" class="st6"/>
			</g>
		</g>
	</g>
</svg>